<?xml version="1.0" standalone="no"?>
<!DOCTYPE svg PUBLIC "-//W3C//DTD SVG 20010904//EN"
 "http://www.w3.org/TR/2001/REC-SVG-20010904/DTD/svg10.dtd">
<svg version="1.0" xmlns="http://www.w3.org/2000/svg"
 width="512.000000pt" height="512.000000pt" viewBox="0 0 512.000000 512.000000"
 preserveAspectRatio="xMidYMid meet">

<g transform="translate(0.000000,512.000000) scale(0.100000,-0.100000)"
fill="#000000" stroke="none">
<path d="M650 3640 c0 -6 32 -10 75 -10 43 0 75 4 75 10 0 6 -32 10 -75 10
-43 0 -75 -4 -75 -10z"/>
<path d="M1135 3640 c-4 -6 31 -10 99 -10 59 0 108 4 111 10 4 6 -31 10 -99
10 -59 0 -108 -4 -111 -10z"/>
<path d="M2095 3640 c-4 -6 31 -10 99 -10 59 0 108 4 111 10 4 6 -31 10 -99
10 -59 0 -108 -4 -111 -10z"/>
<path d="M2495 3640 c3 -6 52 -10 111 -10 68 0 103 4 99 10 -3 6 -52 10 -111
10 -68 0 -103 -4 -99 -10z"/>
<path d="M660 3600 c0 -27 39 -82 113 -158 l81 -82 -42 -43 c-55 -56 -84 -124
-84 -197 0 -83 30 -142 113 -226 l71 -72 -83 -46 c-120 -68 -202 -129 -303
-226 -197 -189 -331 -419 -397 -676 -125 -493 17 -1009 377 -1368 206 -207
471 -346 764 -401 141 -27 371 -25 518 3 417 83 771 338 983 710 l52 92 81
-78 c89 -87 128 -106 216 -106 79 0 127 20 187 77 l53 50 93 -90 c101 -99 136
-117 227 -117 91 0 126 18 228 117 l92 91 133 -131 c143 -142 169 -157 267
-157 106 -1 125 13 377 267 249 251 257 262 257 367 0 97 -16 123 -157 267
l-130 133 90 93 c99 102 117 137 117 227 0 90 -18 125 -117 227 l-90 93 46 49
c60 64 79 110 79 191 0 99 -18 129 -171 284 -158 161 -199 186 -301 186 -107
-1 -131 -17 -358 -243 l-202 -202 -553 553 -552 552 -105 0 -105 0 605 -605
605 -605 -268 -267 -267 -268 -667 667 -668 668 205 205 205 205 -105 0 -105
0 -329 -329 -329 -329 -86 -13 c-47 -6 -124 -22 -171 -35 l-85 -23 -92 93 -93
93 0 53 0 54 217 218 217 218 -104 0 -105 0 -72 -72 -73 -72 -73 72 -72 72
-78 0 c-47 0 -77 -4 -77 -10z m1200 -605 c52 -52 92 -97 89 -99 -3 -3 -26 1
-51 9 -25 7 -95 21 -155 30 -59 10 -110 19 -112 21 -5 5 120 134 129 134 3 0
48 -43 100 -95z m-127 -210 c475 -83 866 -425 1011 -884 111 -350 57 -759
-140 -1063 -244 -378 -642 -598 -1084 -598 -632 0 -1167 458 -1267 1084 -21
133 -13 366 15 481 129 513 525 890 1027 979 108 19 331 20 438 1z m2720 4
c31 -16 236 -219 253 -251 18 -35 18 -82 0 -116 -16 -29 -1485 -1499 -1526
-1526 -31 -21 -89 -21 -120 0 -48 32 -170 159 -170 176 0 10 9 50 19 90 11 40
25 111 32 158 l11 85 677 679 c372 373 690 687 706 697 34 21 85 25 118 8z
m259 -726 c36 -38 71 -78 77 -90 15 -30 14 -79 -3 -111 -16 -29 -1005 -1019
-1046 -1046 -59 -39 -121 -14 -225 93 l-50 51 585 585 c322 322 587 585 590
585 3 0 35 -30 72 -67z m-1712 -208 l95 -95 -65 -65 c-35 -36 -67 -65 -71 -65
-4 0 -10 26 -14 58 -7 61 -39 216 -50 245 -14 34 12 15 105 -78z m1746 -467
c56 -57 109 -114 118 -128 21 -31 21 -89 0 -120 -24 -37 -342 -357 -388 -391
-79 -59 -123 -40 -281 120 l-90 91 265 265 c146 146 267 265 270 265 3 0 51
-46 106 -102z"/>
<path d="M1445 2634 c-214 -21 -391 -84 -559 -196 -90 -61 -236 -211 -300
-309 -201 -310 -238 -696 -97 -1036 110 -268 336 -493 604 -604 340 -141 733
-104 1039 97 91 59 260 228 317 314 127 195 184 387 184 620 0 308 -108 568
-327 786 -207 207 -442 310 -741 327 -44 2 -98 3 -120 1z m338 -188 c325 -97
563 -335 664 -663 25 -81 27 -102 27 -258 1 -148 -2 -180 -22 -250 -98 -340
-354 -594 -690 -687 -112 -31 -372 -31 -485 0 -335 93 -591 348 -689 687 -20
70 -23 102 -22 250 0 156 2 177 27 258 109 355 374 600 738 682 45 10 108 14
214 11 127 -3 164 -8 238 -30z"/>
<path d="M1435 2151 c-151 -25 -251 -76 -360 -186 -131 -131 -188 -264 -188
-445 0 -113 19 -196 68 -289 98 -185 264 -305 471 -339 84 -14 104 -14 188 0
255 42 456 222 522 469 22 85 22 234 0 319 -57 212 -245 401 -451 454 -78 19
-187 27 -250 17z m258 -180 c133 -52 246 -175 288 -312 28 -91 23 -225 -10
-311 -46 -120 -159 -233 -279 -279 -86 -33 -220 -38 -311 -10 -137 42 -259
154 -312 288 -20 49 -23 76 -23 173 0 97 3 124 23 173 51 130 173 244 304 287
85 28 236 23 320 -9z"/>
</g>
</svg>
